<svg width="200" height="200" viewBox="0 0 200 200" fill="none" xmlns="http://www.w3.org/2000/svg">
<rect width="200" height="200" fill="#101820"/>
<g clip-path="url(#clip0)">
<path d="M99.3357 24C115.501 24.0295 130.577 28.0656 144.335 36.626C158.177 45.2285 168.669 56.8697 175.037 71.9241C182.722 90.0761 182.979 108.51 175.849 126.915C170.471 140.803 161.472 151.952 149.507 160.719C137.433 169.557 123.889 174.696 109.02 176.32C94.2601 177.932 79.9801 175.988 66.2683 170.255C53.2677 164.818 42.3041 156.615 33.6385 145.483C24.653 133.943 19.3711 120.879 18.2347 106.267C16.8711 88.6451 21.3997 72.5975 31.5762 58.1491C39.3833 47.0677 49.5135 38.6672 61.6471 32.6867C72.9253 27.1203 85.3076 24.152 97.8838 24C98.3846 24 98.8517 24 99.3357 24ZM99.5462 175.394C100.274 175.394 100.998 175.394 101.726 175.394C113.072 175.143 124.245 172.564 134.554 167.819C146.14 162.499 156.018 154.948 163.863 144.898C174.633 131.115 179.961 115.437 179.414 97.9042C179.13 87.8812 176.653 78.0421 172.158 69.079C164.015 52.762 151.452 40.9525 135.029 33.2212C122.382 27.2659 109.011 24.8039 95.0471 25.5025C88.4212 25.8231 81.8571 26.9322 75.4936 28.8063C61.8954 32.8382 50.027 39.8246 40.1535 50.0643C28.4702 62.1894 21.5133 76.5789 19.7667 93.4135C18.7417 103.07 19.7774 112.835 22.8054 122.062C28.1251 138.345 38.0954 151.203 52.1271 160.887C66.3693 170.731 82.2864 175.339 99.5462 175.398V175.394Z" fill="white"/>
<path d="M99.8038 156.531C84.8125 156.556 71.3238 152.116 59.7415 142.482C48.799 133.375 41.9767 121.78 40.066 107.601C38.1258 93.241 41.5769 80.1057 50.1963 68.4603C58.9124 56.6803 70.6083 49.252 84.8167 45.9271C100.54 42.2614 115.641 44.2016 129.816 51.9792C141.693 58.5026 150.384 68.0268 155.531 80.6444C158.073 86.8544 159.368 93.5044 159.34 100.215C159.298 114.335 154.441 126.654 144.9 136.994C133.612 149.199 119.441 155.512 102.889 156.527C101.862 156.573 100.831 156.531 99.8038 156.531ZM99.3409 45.6494C98.7053 45.6494 98.0783 45.6494 97.4343 45.6494C96.7904 45.6494 96.1717 45.6999 95.532 45.742C81.433 46.7184 69.0174 51.7351 58.5462 61.314C49.4808 69.6009 43.5971 79.7774 41.7116 91.9489C38.9297 109.823 44.3336 125.197 56.9343 138.013C63.8239 145.02 72.1487 149.797 81.5719 152.596C92.6827 155.916 103.899 156.228 115.081 153.214C131.878 148.686 144.698 138.968 152.538 123.266C158.498 111.368 159.516 98.8806 155.863 86.1073C152.526 74.424 145.733 65.0639 136.083 57.7577C125.224 49.5508 112.893 45.7083 99.3409 45.6494Z" fill="white"/>
<path d="M129.345 42.939C129.358 42.5711 129.486 42.2166 129.711 41.9247C130.594 40.4489 131.485 38.9772 132.383 37.5098C132.972 36.5502 133.726 36.2809 134.673 36.8406C138.073 38.858 141.461 40.8978 144.837 42.96C145.712 43.4945 145.821 44.1511 145.346 45.0644C143.668 48.3546 141.41 51.3145 138.679 53.8016C138.439 54.0162 138.258 54.2224 137.901 54.0162C137.278 53.6459 136.638 53.2881 136.032 52.9051C135.578 52.6231 135.927 52.4127 136.125 52.2065C137.051 51.2553 137.964 50.2873 138.919 49.3656C139.386 48.9195 139.593 48.6333 138.814 48.3219C138.378 48.1083 137.963 47.8562 137.572 47.5685C136.647 46.992 136.487 46.3985 137.046 45.4347C137.741 44.2353 138.46 43.0442 139.189 41.8616C139.403 41.5165 139.563 41.2092 139.125 40.9441C138.688 40.6789 138.414 40.881 138.178 41.285C137.362 42.6949 136.524 44.0922 135.687 45.4937C135.005 46.6342 134.159 46.8615 133.031 46.2007C132.093 45.6536 131.175 45.0644 130.233 44.5173C129.957 44.3577 129.729 44.1271 129.573 43.8495C129.417 43.5719 129.338 43.2575 129.345 42.939V42.939ZM132.568 44.412C132.682 44.425 132.796 44.4034 132.897 44.3501C132.997 44.2967 133.079 44.2142 133.132 44.1132L135.843 39.6268C135.893 39.569 135.928 39.5003 135.947 39.4262C135.965 39.3522 135.966 39.2748 135.95 39.2003C135.933 39.1258 135.899 39.0563 135.85 38.9973C135.802 38.9383 135.74 38.8916 135.67 38.8608C135.607 38.8039 135.531 38.7631 135.449 38.742C135.366 38.7208 135.28 38.7199 135.197 38.7394C135.115 38.7588 135.038 38.798 134.974 38.8536C134.909 38.9092 134.86 38.9795 134.828 39.0586C133.945 40.5611 133.04 42.051 132.139 43.5451C131.777 44.1258 132.19 44.2732 132.568 44.4162V44.412ZM140.245 47.7243C140.3 47.6822 140.426 47.6317 140.481 47.5391C141.263 46.2512 142.042 44.9634 142.804 43.6671C142.976 43.3683 142.804 43.1621 142.539 42.9979C142.483 42.9468 142.415 42.9098 142.342 42.8901C142.269 42.8704 142.192 42.8685 142.118 42.8846C142.043 42.9006 141.974 42.9342 141.916 42.9825C141.857 43.0308 141.811 43.0923 141.781 43.1621C141.049 44.3742 140.308 45.5778 139.597 46.8026C139.542 46.9059 139.517 47.0222 139.525 47.1387C139.532 47.2553 139.571 47.3676 139.638 47.4632C139.705 47.5589 139.797 47.6343 139.904 47.6811C140.011 47.7278 140.129 47.7442 140.245 47.7285V47.7243Z" fill="white"/>
<path d="M137.64 154.578C137.177 153.105 136.735 151.632 136.234 150.167C136.066 149.679 136.12 149.401 136.583 149.136C137.341 148.715 138.077 148.219 138.797 147.722C139.218 147.428 139.475 147.516 139.757 147.916C141.637 150.601 143.538 153.29 145.459 155.984C145.779 156.43 145.657 156.649 145.236 156.884C144.58 157.255 143.936 157.995 143.309 157.97C142.682 157.945 142.387 156.901 141.949 156.287C141.271 155.279 140.529 154.316 139.727 153.404C140.148 154.822 140.62 156.236 141.032 157.663C141.162 158.109 141.621 158.648 141.272 159.018C140.76 159.485 140.181 159.874 139.555 160.171C139.235 160.357 139.071 160.007 138.894 159.839C138.002 158.976 137.126 158.096 136.247 157.225C136.074 157.057 135.868 156.804 135.649 157.04C135.43 157.276 135.805 157.356 135.897 157.52C136.546 158.644 137.181 159.776 137.854 160.887C138.09 161.274 137.998 161.501 137.644 161.695L137.488 161.787C135.67 162.983 135.67 162.983 134.61 161.085C133.254 158.656 131.916 156.219 130.536 153.804C130.262 153.328 130.283 153.092 130.78 152.815C131.727 152.284 132.627 151.266 133.562 151.249C134.496 151.232 135.106 152.545 135.885 153.248C136.419 153.736 136.933 154.246 137.455 154.746C137.526 154.835 137.56 155.049 137.72 154.911C137.88 154.772 137.753 154.679 137.64 154.578Z" fill="white"/>
<path d="M159.794 131.266L163.919 133.552C165.341 134.339 165.341 134.339 164.546 135.748C164.428 135.926 164.324 136.111 164.234 136.304C164.024 136.847 163.733 136.826 163.266 136.561C160.46 134.97 157.635 133.399 154.79 131.847C154.289 131.569 154.289 131.338 154.491 130.786C155.215 128.808 156.427 127.962 158.582 128.459C159.613 128.699 160.72 128.602 162.058 128.67C160.489 127.803 159.163 127.045 157.808 126.338C157.311 126.081 157.273 125.85 157.526 125.37C158.578 123.383 158.561 123.379 160.526 124.482C162.925 125.824 165.32 127.175 167.736 128.493C168.241 128.771 168.275 128.977 168.047 129.52C167.378 131.132 166.486 132.045 164.525 131.59C163.077 131.27 161.537 131.367 159.794 131.266Z" fill="white"/>
<path d="M67.3256 159.325C66.9637 159.325 66.9048 159.591 66.8206 159.797C66.3997 160.668 65.9452 161.527 65.558 162.41C65.3307 162.92 65.0866 162.962 64.59 162.718C62.3384 161.619 62.351 161.649 63.4957 159.376C64.6405 157.103 65.7937 154.704 66.9006 152.352C67.1867 151.75 67.4393 151.64 68.0579 151.956C70.2086 153.042 70.2254 153.012 69.1269 155.104C68.3778 156.527 68.3778 156.527 69.8424 157.238C71.0082 157.806 71.0082 157.806 71.5553 156.636L71.6311 156.472C72.7506 154.065 72.8011 154.056 75.1285 155.403C75.4736 155.601 75.5199 155.782 75.3516 156.118C73.8561 159.157 72.3704 162.199 70.8946 165.243C70.7431 165.554 70.5873 165.601 70.2549 165.483C67.7297 164.557 67.7002 164.54 68.8828 162.116C69.6741 160.487 69.6741 160.483 68.0411 159.671C67.7886 159.519 67.5403 159.426 67.3256 159.325Z" fill="white"/>
<path d="M146.613 61.2635C146.377 61.2655 146.144 61.2195 145.927 61.1283C145.71 61.0371 145.513 60.9027 145.35 60.7332C144.449 59.8915 143.532 59.0497 142.644 58.1828C141.672 57.2358 141.667 56.4993 142.572 55.5397C143.835 54.1929 145.097 52.8378 146.36 51.5036C146.714 51.1375 146.836 50.8386 146.406 50.443C145.977 50.0474 146.07 49.6308 146.406 49.2478C147.185 48.406 147.98 47.5643 148.751 46.7226C148.99 46.4532 149.171 46.4322 149.42 46.6973C149.42 46.7226 149.466 46.7352 149.487 46.7562C151.314 48.2082 151.314 48.2082 149.706 49.9043C149.5 50.1232 149.285 50.3546 149.087 50.5651C148.889 50.7755 148.793 51.0617 149.112 51.31C149.723 51.794 149.567 52.2654 149.112 52.762C147.694 54.2519 146.301 55.7628 144.904 57.2569C144.521 57.6777 144.344 58.0397 144.79 58.5195C145.333 59.0876 145.758 58.7846 146.162 58.3511C147.714 56.7013 149.265 55.0487 150.817 53.3933C151.562 52.5979 152.311 51.8108 153.035 51.0028C153.363 50.6366 153.612 50.5819 154.011 50.9396C155.695 52.3832 155.72 52.3748 154.201 53.9951C152.134 56.2005 150.059 58.3974 147.997 60.6112C147.597 61.0362 147.206 61.3393 146.613 61.2635Z" fill="white"/>
<path d="M157.833 55.9858C158.085 55.9863 158.333 56.0455 158.558 56.1588C158.783 56.272 158.979 56.4362 159.129 56.6382C160.042 57.8377 160.985 59.0161 161.877 60.2324C162.53 61.1204 162.404 61.9159 161.524 62.585C158.721 64.7399 155.905 66.8737 153.107 69.0411C152.635 69.4073 152.421 69.3694 152.05 68.8938C150.737 67.1809 150.712 67.2104 152.395 65.9183C154.727 64.1422 157.025 62.3451 159.403 60.607C160.076 60.1145 159.933 59.7063 159.542 59.1844C159.15 58.6626 158.801 58.4942 158.195 58.9656C155.552 61.0236 152.863 63.0269 150.198 65.0892C149.651 65.5101 149.395 65.4469 149.003 64.904C147.825 63.2921 147.795 63.3005 149.382 62.0758C151.747 60.2492 154.121 58.4255 156.503 56.6045C156.886 56.3141 157.265 55.9858 157.833 55.9858Z" fill="white"/>
<path d="M125.704 155.357C126.28 155.343 126.854 155.445 127.39 155.657C127.927 155.868 128.415 156.186 128.827 156.59C129.632 157.328 130.25 158.248 130.629 159.272C131.008 160.297 131.138 161.397 131.007 162.482C130.805 164.401 129.66 165.689 127.909 166.404C126.158 167.12 124.454 167.099 122.943 165.866C122.026 165.158 121.312 164.219 120.875 163.146C120.438 162.072 120.294 160.902 120.456 159.755C120.75 157.154 122.96 155.348 125.704 155.357ZM127.838 162.091C127.796 160.873 127.323 159.709 126.504 158.808C126.283 158.515 125.97 158.306 125.616 158.213C125.261 158.121 124.886 158.151 124.551 158.299C123.81 158.618 123.587 159.275 123.587 160.003C123.607 161.192 124.038 162.337 124.807 163.244C125.321 163.879 125.986 164.216 126.807 163.921C127.627 163.627 127.846 162.92 127.846 162.103L127.838 162.091Z" fill="white"/>
<path d="M82.5523 35.0604C82.464 33.8609 83.1079 33.4358 83.8528 33.2086C84.5977 32.9813 84.6735 32.6109 84.5599 31.946C84.2568 30.1278 84.2905 30.1531 86.1044 29.8416C86.8368 29.7154 87.2871 29.7827 87.2618 30.6834C87.2618 30.9485 87.3755 31.2179 87.3797 31.4872C87.3797 32.1774 87.6196 32.4763 88.394 32.4973C89.6566 32.531 90.0774 33.0108 90.2879 34.2481C90.6035 36.2472 90.9023 38.2506 91.2306 40.2497C91.2769 40.5106 91.1633 40.9357 91.6178 40.9525C92.0723 40.9693 92.4132 40.9104 92.5647 40.4306C92.6195 40.2581 92.7078 40.0982 92.7752 39.9298C92.9814 39.45 93.3013 39.0586 93.861 39.147C94.4208 39.2354 94.2188 39.7783 94.2819 40.1192C94.4502 40.9146 94.5597 41.7269 94.6565 42.535C94.6859 42.7749 94.8711 43.1158 94.5218 43.2547C94.244 43.3641 93.8063 43.4398 93.659 43.1999C92.5648 41.4786 91.0286 42.333 89.6734 42.5518C88.7812 42.6991 88.6044 42.4087 88.495 41.6512C88.1751 39.349 87.7711 37.0553 87.4512 34.7489C87.3418 33.9703 86.9672 33.6715 86.2349 33.7936C85.5026 33.9156 85.3343 34.3828 85.4437 35.0562C85.8225 37.3836 86.1592 39.7152 86.5674 42.0384C86.6894 42.7412 86.5674 43.0274 85.793 43.1452C83.8318 43.4398 83.8486 43.4819 83.5582 41.5501C83.2341 39.2901 82.8638 37.0469 82.5523 35.0604Z" fill="white"/>
<path d="M89.5473 159.41C90.7609 159.462 91.963 159.669 93.1247 160.024C94.2989 160.445 95.1154 161.181 95.3216 162.436C95.459 163.047 95.405 163.686 95.1671 164.266C94.9292 164.845 94.5189 165.338 93.9917 165.676C93.6886 165.883 93.5708 166.009 93.7728 166.379C94.564 167.81 94.3368 169.452 94.6735 170.979C94.7492 171.324 94.5388 171.4 94.2526 171.341C93.5035 171.228 92.7543 171.11 92.001 171.026C91.9258 171.023 91.8518 171.006 91.7832 170.976C91.7145 170.945 91.6527 170.901 91.6011 170.846C91.5495 170.791 91.5092 170.727 91.4825 170.657C91.4558 170.586 91.4432 170.512 91.4454 170.436C91.3528 169.717 91.2518 168.997 91.1803 168.273C91.1742 167.819 91.0271 167.378 90.7594 167.01C90.6686 166.907 90.5528 166.829 90.4231 166.783C90.2934 166.738 90.1542 166.726 90.0187 166.75C89.6609 166.792 89.7956 167.124 89.7662 167.335C89.6357 168.202 89.4842 169.069 89.421 169.944C89.379 170.491 89.2106 170.672 88.6424 170.613C86.2056 170.356 86.2056 170.369 86.5381 167.949C86.8706 165.529 87.1736 163.147 87.5019 160.752C87.6997 159.334 87.7081 159.334 89.5473 159.41ZM92.203 163.147C92.1887 162.99 92.1417 162.837 92.065 162.699C91.9883 162.561 91.8835 162.441 91.7575 162.346C91.6314 162.25 91.4869 162.183 91.3331 162.147C91.1794 162.111 91.0198 162.107 90.8646 162.137C89.9808 162.351 90.4101 163.214 90.2754 163.787C90.1407 164.359 90.6626 164.279 90.9825 164.283C91.1411 164.304 91.3025 164.291 91.4551 164.242C91.6078 164.194 91.748 164.113 91.8657 164.004C91.9834 163.896 92.0758 163.763 92.1362 163.615C92.1967 163.466 92.2238 163.307 92.2156 163.147H92.203Z" fill="white"/>
<path d="M71.8204 38.2211C70.2001 38.5367 70.2001 38.5367 69.7161 37.0595C69.4425 36.2598 69.1984 35.4476 68.8744 34.6605C68.6934 34.206 68.8028 34.0503 69.2532 33.8819C71.3575 33.0907 71.3575 33.0739 72.1066 35.1445C72.6538 36.6723 72.6496 36.6639 73.9879 35.7632C74.7284 35.2316 75.5665 34.8512 76.4542 34.6437C77.9903 34.3281 79.1267 34.9636 79.6528 36.4534C80.4356 38.6756 81.1974 40.9104 82.0012 43.1284C82.199 43.6713 82.1401 43.9154 81.5425 44.1132C79.5433 44.7824 79.5518 44.8076 78.8531 42.8001C78.1924 40.9188 77.5442 39.0123 76.8751 37.1479C76.4542 35.9905 75.5914 35.8432 74.7707 36.7733C74.0468 37.615 73.8111 39.45 74.6613 39.8288C75.9618 40.4096 75.2379 41.1545 75.28 41.8868C75.4083 42.9709 75.7155 44.0261 76.189 45.0097C76.4668 45.6999 76.2816 45.965 75.6125 46.1797C73.6765 46.8025 73.6849 46.8236 73.0662 44.8581C72.8015 44.0442 72.7252 43.1807 72.8431 42.3329C72.8726 42.1099 72.9989 41.8532 72.7295 41.6722C71.5385 40.8767 71.2396 40.0476 71.6647 38.7261L71.8204 38.2211Z" fill="white"/>
<path d="M31.0217 76.1243C30.7187 76.8861 30.4577 77.429 30.281 77.993C30.1042 78.5569 29.8264 78.6327 29.355 78.3844C29.1919 78.3042 29.0247 78.2326 28.8542 78.1697C26.8214 77.328 26.8383 77.328 27.7305 75.3078C27.9494 74.807 28.1977 74.7986 28.6354 74.9585C29.9779 75.4383 29.9527 75.4131 30.4788 74.1883C30.7271 73.6117 30.6976 72.6395 31.4594 72.6227C32.1454 72.6227 32.158 73.5697 32.4863 74.0873C32.7514 74.5082 32.945 74.9922 33.2144 75.5351C33.6605 75.1142 33.7026 74.5629 33.9299 74.1294C34.4181 73.2035 34.9778 72.9594 35.9206 73.334C37.886 74.121 39.843 74.9333 41.8127 75.6866C42.3767 75.9013 42.4735 76.1075 42.2336 76.6757C41.4213 78.6621 41.4465 78.6664 39.4264 77.8499C38.0796 77.3056 36.7314 76.7682 35.3819 76.238C35.0494 76.1075 34.6748 75.9223 34.3802 76.28C34.2667 76.4435 34.2105 76.6399 34.2204 76.8386C34.2303 77.0373 34.3057 77.2272 34.4349 77.3785C34.8308 77.9927 35.4248 78.4531 36.1184 78.6832C37.4399 79.2093 38.7446 79.769 40.0787 80.2614C40.5796 80.4466 40.6385 80.636 40.4533 81.1032C39.6452 83.2075 39.6621 83.2075 37.6082 82.3952C36.594 81.9744 35.5965 81.5535 34.5696 81.1958C33.9348 81.0049 33.3575 80.6591 32.8895 80.1897C32.4215 79.7202 32.0776 79.1418 31.8887 78.5064C31.653 77.7699 31.3626 77.0544 31.0217 76.1243Z" fill="white"/>
<path d="M62.6118 40.7252C61.9855 40.8922 61.393 41.1671 60.861 41.5375C60.4401 41.7563 60.2002 41.7563 60.0193 41.306C59.9225 41.0829 59.771 40.8851 59.6826 40.6621C59.4385 40.056 58.6262 39.3995 58.925 38.9365C59.3038 38.3515 60.1876 38.0948 60.882 37.7118C61.3408 37.4551 61.4376 37.8591 61.5975 38.1327C62.2751 39.3406 62.2751 39.3406 63.4662 38.6966L64.5057 38.1327C64.7456 37.998 65.0023 37.8465 65.2675 38.0232C65.5326 38.2 65.4484 38.5157 65.3895 38.7724C65.1959 39.6141 64.9687 40.4559 64.7582 41.4154C65.3306 41.4154 65.6673 41.0872 66.0545 40.9104C67.1403 40.4096 67.7169 40.5863 68.2851 41.6259C69.2699 43.4272 70.2337 45.2411 71.2312 47.0298C71.5173 47.539 71.5763 47.8042 70.9576 48.1367C69.0847 49.1383 69.1016 49.1762 68.0831 47.2949C67.3802 45.9945 66.6774 44.6898 65.9787 43.3935C65.8062 43.0779 65.6294 42.7033 65.1749 42.8127C64.9996 42.8678 64.8449 42.9744 64.7308 43.1184C64.6168 43.2625 64.5486 43.4375 64.5352 43.6208C64.4259 44.284 64.5524 44.9646 64.8929 45.5441C65.5915 46.8488 66.2775 48.1661 66.9972 49.4498C67.2708 49.9254 67.2245 50.1568 66.7321 50.4304C64.8003 51.5078 64.8087 51.5246 63.7313 49.555C63.1842 48.5449 62.6581 47.5222 62.0773 46.5332C61.7636 46.0496 61.5678 45.4991 61.5056 44.926C61.4435 44.3529 61.5168 43.7732 61.7196 43.2336C62.0015 42.4592 62.2667 41.6764 62.6118 40.7252Z" fill="white"/>
<path d="M41.5685 66.7264C42.7637 66.7264 43.7612 66.6927 44.7544 66.7264C45.7477 66.76 45.9833 67.1893 45.5372 68.0942C45.0911 68.999 44.6113 69.8618 44.1484 70.7456C43.4329 72.0966 43.5171 72.9005 44.5692 74.0158C44.8723 74.3398 44.9438 74.5839 44.6702 74.9501C44.3967 75.3163 44.1484 75.0301 43.9127 74.8954C41.2949 73.4055 41.2949 73.4055 42.6248 70.7456C43.2393 69.5167 43.2393 69.483 41.8504 69.5293C40.606 69.6078 39.3721 69.2589 38.353 68.5403C37.2125 67.7449 36.013 67.0378 34.8514 66.2718C34.0097 65.7121 33.8035 64.9503 34.3211 64.0917C35.1208 62.7786 35.9499 61.4782 36.8127 60.2029C37.4103 59.3233 38.1636 59.1971 39.0769 59.7821C40.2553 60.5186 41.4254 61.2719 42.5869 62.0295C43.5297 62.644 43.6938 63.3552 43.1046 64.3401C42.6669 65.0892 42.1745 65.8089 41.5685 66.7264ZM37.284 62.0968C36.7369 62.3367 36.5517 62.8376 36.3034 63.2711C36.0551 63.7045 36.375 63.8771 36.6696 64.0665C37.667 64.6936 38.6855 65.2912 39.6451 65.9688C40.2848 66.4233 40.5626 66.0698 40.8404 65.5858C41.1181 65.1018 41.4843 64.681 40.7267 64.2433C39.7082 63.6582 38.7402 62.9807 37.747 62.3536C37.6123 62.2652 37.4524 62.1852 37.3009 62.101L37.284 62.0968Z" fill="white"/>
<path d="M162.008 139.688C161.953 139.764 161.894 139.865 161.819 139.957C161.688 140.126 161.549 140.285 161.398 140.45C160.068 142.133 160.063 142.133 158.149 141.35C157.757 141.19 157.53 141.224 157.307 141.552C157.178 141.758 157.027 141.948 156.856 142.12C156.276 142.651 156.225 143.168 156.856 143.694C156.899 143.737 156.936 143.785 156.966 143.838C157.808 144.911 157.808 144.911 156.936 145.988C155.75 147.47 155.737 147.474 154.605 145.912C152.871 143.514 151.162 141.094 149.407 138.707C149.32 138.626 149.25 138.527 149.204 138.417C149.158 138.306 149.136 138.188 149.139 138.068C149.142 137.949 149.171 137.831 149.223 137.724C149.275 137.616 149.349 137.521 149.441 137.445C150.026 136.792 150.581 136.115 151.099 135.408C151.143 135.33 151.202 135.262 151.273 135.209C151.344 135.155 151.425 135.117 151.512 135.096C151.599 135.076 151.688 135.073 151.776 135.089C151.864 135.105 151.947 135.139 152.021 135.189C155.181 136.552 158.334 137.903 161.511 139.267C161.713 139.355 161.936 139.389 162.008 139.688ZM152.989 138.846L152.917 138.989C153.3 139.435 153.679 139.89 154.075 140.323C154.239 140.504 154.298 140.934 154.63 140.769C154.89 140.617 155.087 140.377 155.186 140.092C155.329 139.7 154.895 139.696 154.685 139.591C154.133 139.317 153.557 139.078 152.989 138.833V138.846Z" fill="white"/>
<path d="M29.7842 119.65C29.5724 119.686 29.3589 119.71 29.1445 119.722C28.589 119.722 27.8524 120.227 27.5284 119.722C27.0756 118.903 26.7305 118.028 26.5015 117.121C26.4047 116.826 26.7245 116.843 26.9223 116.826C30.3819 116.49 33.8456 116.157 37.3009 115.804C37.3867 115.78 37.4765 115.775 37.5646 115.788C37.6527 115.801 37.737 115.832 37.8123 115.88C37.8875 115.927 37.9521 115.99 38.0017 116.064C38.0513 116.138 38.085 116.221 38.1005 116.309C38.3867 117.15 38.7066 118.017 39.0643 118.834C39.1149 118.925 39.1462 119.026 39.1566 119.13C39.1669 119.234 39.156 119.339 39.1245 119.439C39.0931 119.538 39.0416 119.63 38.9734 119.709C38.9052 119.789 38.8215 119.853 38.7276 119.899C36.0004 121.902 33.2816 123.917 30.5712 125.942C30.1251 126.279 29.8558 126.342 29.7295 125.702C29.671 125.5 29.5979 125.301 29.5107 125.109C28.8204 123.274 28.812 123.266 30.3861 122.062C30.7185 121.809 30.8869 121.582 30.6765 121.161C30.4946 120.78 30.3413 120.386 30.2177 119.983C30.1378 119.718 29.9947 119.596 29.7842 119.65ZM35.1334 118.943L35.1882 118.775C35.1587 118.775 35.1292 118.754 35.104 118.775L33.0628 119.065C32.8902 119.091 32.6419 119.103 32.7177 119.352C32.7787 119.649 32.8912 119.934 33.0502 120.193C33.189 120.399 33.37 120.193 33.5047 120.109C34.0813 119.688 34.641 119.297 35.1461 118.943H35.1334Z" fill="white"/>
<path d="M83.2343 169.696C82.2116 169.393 81.2899 169.111 80.364 168.854C80.0273 168.761 79.9431 168.555 79.9852 168.244C80.0147 167.764 79.9852 167.276 80.0273 166.796C80.0694 166.316 79.8548 166.106 79.4213 165.954C77.8851 165.457 77.8472 165.428 77.1065 166.867C76.753 167.558 76.3952 167.781 75.6587 167.457C75.0022 167.17 73.9374 167.255 73.7059 166.712C73.4744 166.169 74.2825 165.491 74.6529 164.885C76.1343 162.465 77.6578 160.07 79.1225 157.638C79.4549 157.091 79.7832 156.96 80.3851 157.183C81.0302 157.441 81.6981 157.639 82.38 157.772C83.2217 157.924 83.4448 158.345 83.4153 159.187C83.3143 162.36 83.2975 165.533 83.2512 168.702C83.2343 169.01 83.2343 169.304 83.2343 169.696ZM80.3472 160.857L79.2656 162.785C79.1772 162.945 79.0467 163.147 79.2656 163.252C79.5303 163.379 79.8151 163.459 80.1073 163.488C80.3682 163.517 80.3219 163.256 80.3219 163.092C80.3388 162.368 80.3346 161.649 80.3346 160.853L80.3472 160.857Z" fill="white"/>
<path d="M45.7476 131.797C46.0044 131.738 46.1138 131.906 46.2443 132.087C46.8166 132.87 47.389 133.648 47.9867 134.41C48.0497 134.474 48.0992 134.55 48.1322 134.633C48.1652 134.716 48.181 134.806 48.1787 134.895C48.1763 134.985 48.1559 135.073 48.1185 135.155C48.0812 135.236 48.0277 135.309 47.9614 135.37C45.8402 138.089 43.7275 140.814 41.6231 143.547C41.3159 143.968 41.1055 143.968 40.8193 143.547C40.3984 142.945 39.9776 142.356 39.523 141.796C39.4616 141.741 39.4125 141.673 39.3789 141.597C39.3454 141.521 39.328 141.439 39.328 141.357C39.328 141.274 39.3454 141.192 39.3789 141.116C39.4125 141.04 39.4616 140.972 39.523 140.917C39.7371 140.622 39.9691 140.341 40.2175 140.075C40.7814 139.562 40.7267 139.124 40.2469 138.551C39.4052 137.525 39.4052 137.445 38.1931 138.063C37.4145 138.459 36.8758 138.484 36.4507 137.642C36.1519 137.028 35.2176 136.493 35.4069 135.959C35.5963 135.424 36.6233 135.344 37.2882 135.084C39.8766 134.069 42.4733 133.076 45.07 132.074L45.7476 131.797ZM44.2073 135.462L44.0936 135.319L41.8041 136.346C41.8925 136.485 41.9641 136.578 42.0188 136.683C42.3428 137.301 42.6711 137.449 43.1299 136.767C43.4664 136.314 43.826 135.878 44.2073 135.462V135.462Z" fill="white"/>
<path d="M96.3233 32.7877C96.3233 31.946 96.3233 31.1337 96.3233 30.3172C96.3527 29.2735 96.8494 28.7053 97.8721 28.7095C99.5008 28.7095 101.138 28.7684 102.767 28.8821C103.697 28.9494 104.097 29.5681 104.084 30.7044C104.084 31.1253 103.991 31.5461 104.673 31.5461C105.267 31.5461 106.054 31.2768 106.407 31.7061C106.761 32.1354 106.483 32.9224 106.483 33.5495C106.483 33.7851 106.647 34.185 106.226 34.1934C105.89 34.1934 105.469 34.1934 105.347 33.7178C105.317 33.6 105.292 33.4821 105.267 33.3643C105.213 33.1568 105.086 32.9758 104.909 32.855C104.686 32.6951 104.433 32.4847 104.172 32.5562C103.81 32.653 103.991 33.015 103.975 33.2591C103.941 33.7725 103.975 34.2902 103.941 34.8036C103.886 35.839 103.381 36.3272 102.325 36.344C101.659 36.3687 100.993 36.349 100.33 36.2851C99.5808 36.1967 99.404 36.3524 99.766 37.0721C100.444 38.4231 101.029 39.812 101.71 41.1671C101.984 41.7227 101.82 41.7606 101.29 41.8279C99.5724 42.0426 98.2929 41.6596 97.8763 39.7572C97.7728 39.4089 97.6197 39.0772 97.4217 38.7724C96.3738 36.8996 95.8182 34.9425 96.3233 32.7877ZM99.1052 32.5562H99.0673C99.1053 33.0395 99.1053 33.525 99.0673 34.0082C98.92 34.9678 99.4882 35.0141 100.199 35.073C100.957 35.1361 101.142 34.7447 101.142 34.1008C101.142 33.0739 101.142 32.0386 101.214 31.0158C101.277 30.2204 100.995 29.9637 100.204 29.9511C99.4124 29.9384 99.1599 30.1783 99.1978 30.9275C99.1943 31.4716 99.1634 32.0152 99.1052 32.5562V32.5562Z" fill="white"/>
<path d="M101.218 171.472C100.216 171.472 99.2188 171.472 98.2213 171.472C97.8005 171.472 97.6279 171.329 97.6237 170.895C97.5985 167.565 97.562 164.234 97.5143 160.904C97.5143 160.407 97.7205 160.302 98.1708 160.302C100.079 160.302 101.987 160.285 103.895 160.251C104.4 160.251 104.56 160.378 104.568 160.912C104.589 163.05 104.61 163.05 102.497 163.05C102.135 163.05 101.769 163.071 101.407 163.05C100.915 163.012 100.696 163.168 100.7 163.707C100.704 164.245 100.881 164.397 101.399 164.367C102.182 164.317 102.973 164.367 103.756 164.317C104.236 164.317 104.37 164.485 104.395 164.944C104.509 167.107 104.522 167.107 102.371 167.128C102.127 167.128 101.883 167.128 101.643 167.128C101.13 167.103 100.721 167.069 100.734 167.848C100.747 168.627 101.054 168.69 101.664 168.652C102.506 168.61 103.347 168.652 104.189 168.652C104.416 168.652 104.762 168.551 104.791 168.875C104.854 169.629 104.875 170.387 104.854 171.143C104.854 171.501 104.505 171.4 104.286 171.4C103.259 171.4 102.228 171.4 101.201 171.4L101.218 171.472Z" fill="white"/>
<path d="M146.916 141.872C148.422 141.935 149.441 142.76 150.123 144.035C150.872 145.42 150.543 146.729 149.702 147.966C149.585 148.18 149.431 148.371 149.247 148.53C148.456 149.115 148.405 149.662 149.247 150.252C149.499 150.468 149.729 150.709 149.933 150.971C150.914 151.998 150.914 151.998 149.832 152.991C148.57 154.157 148.57 154.149 147.416 152.903C145.59 150.939 143.755 148.975 141.911 147.011C141.049 146.093 141.015 146.072 141.911 145.151C142.968 144.044 143.94 142.823 145.405 142.184C145.875 141.958 146.394 141.851 146.916 141.872V141.872ZM147.505 145.954C147.481 145.704 147.382 145.466 147.221 145.272C147.061 145.077 146.846 144.936 146.604 144.864C145.994 144.709 145.548 145.083 145.236 145.534C144.925 145.984 145.56 146.127 145.712 146.434C145.768 146.541 145.851 146.633 145.952 146.699C146.221 146.893 146.373 147.432 146.764 147.247C146.998 147.125 147.193 146.938 147.324 146.709C147.456 146.48 147.518 146.218 147.505 145.954V145.954Z" fill="white"/>
<path d="M60.8568 147.705C62.494 147.84 63.9502 148.913 65.1075 150.491C65.1619 150.544 65.2033 150.608 65.2285 150.679C65.2537 150.75 65.2619 150.826 65.2525 150.901C65.2431 150.976 65.2163 151.047 65.1743 151.11C65.1324 151.173 65.0764 151.224 65.0107 151.262C64.5646 151.624 64.1143 151.986 63.7061 152.39C63.3778 152.709 63.1926 152.688 62.9527 152.289C62.5781 151.663 62.0473 151.145 61.4123 150.786C61.143 150.635 60.8442 150.496 60.5706 150.748C60.297 151.001 60.4359 151.308 60.5706 151.59C60.9073 152.162 61.2819 152.709 61.6059 153.273C62.4477 154.751 62.313 156.161 61.3155 157.326C60.8473 157.89 60.2108 158.288 59.4996 158.463C58.7883 158.638 58.0397 158.58 57.3636 158.299C55.9022 157.768 54.6507 156.781 53.7946 155.483C53.6558 155.281 53.4537 155.062 53.6726 154.835C54.2169 154.268 54.793 153.733 55.3981 153.231C55.6801 153.004 55.7896 153.374 55.9074 153.564C56.3013 154.211 56.8173 154.776 57.4267 155.226C57.8013 155.491 58.2685 155.79 58.6893 155.449C59.1102 155.108 58.7861 154.608 58.5546 154.237C58.1216 153.62 57.7481 152.964 57.4394 152.276C56.5387 149.974 58.037 147.735 60.8568 147.705Z" fill="white"/>
<path d="M45.2385 57.8713C45.2143 58.0798 45.2337 58.291 45.2952 58.4917C45.3568 58.6923 45.4593 58.878 45.5962 59.0371C45.9918 59.5043 45.7056 59.8789 45.4279 60.1524C45.0407 60.5733 44.8765 60.0177 44.6787 59.841C42.8437 58.208 42.8269 58.1575 44.5272 56.5035C45.108 55.9269 45.2132 55.5018 44.4767 55.0389C44.4304 54.9982 44.3881 54.9531 44.3504 54.9042C43.3656 53.9404 43.3319 53.911 42.4018 54.9631C41.922 55.506 41.6106 55.5734 41.1392 54.9884C40.8194 54.5886 40.3859 54.2897 40.0366 53.911C39.843 53.6963 39.3506 53.528 39.6704 53.1281C39.9903 52.7283 40.2007 52.2485 40.832 52.5305C42.0946 53.1029 43.1468 52.6526 43.9759 51.6888C44.4515 51.1248 44.7713 51.2679 45.188 51.7182C45.7056 52.2654 46.2738 52.7704 46.8083 53.3049C47.1029 53.6037 47.3218 53.6248 47.6164 53.2755C48.0877 52.7241 48.6265 52.2317 49.1062 51.6888C49.4261 51.331 49.666 51.3437 49.9859 51.6888C50.4067 52.1349 50.8613 52.5305 51.2779 52.9514C51.4715 53.1534 51.9723 53.3007 51.602 53.7005C51.3158 54.012 50.9707 54.2266 50.4993 53.8647C49.868 53.3807 49.1904 53.5406 48.5297 53.8647C48.0078 54.1298 47.9825 54.3992 48.4118 54.8074C49.9522 56.2552 51.4673 57.7535 53.0077 59.1844C54.0051 60.123 54.0178 60.1103 53.075 61.0741C51.9934 62.1852 51.9892 62.1894 50.8907 61.1457C49.5313 59.8536 48.1887 58.5447 46.8083 57.2737C46.5305 57.017 46.2906 56.432 45.8319 56.6676C45.3732 56.9033 45.2932 57.5136 45.2385 57.8713Z" fill="white"/>
<path d="M156.044 77.3196C156.043 77.2179 156.064 77.1172 156.107 77.025C156.835 76.0402 156.17 75.3415 155.628 74.6261C155.1 73.9644 154.615 73.27 154.176 72.547C153.574 71.4906 153.83 70.6909 154.887 70.1396C157.693 68.6722 160.512 67.2132 163.346 65.7626C164.293 65.2786 165.278 65.5353 165.985 66.4612C166.658 67.401 167.06 68.5074 167.147 69.6598C167.218 70.228 167.353 70.6699 168.077 70.5941C168.519 70.5436 168.59 70.9771 168.725 71.2507C168.91 71.6295 168.502 71.6716 168.304 71.7978C167.509 72.2187 166.696 72.6396 165.897 73.0604C165.589 73.2246 165.312 73.3929 165.055 72.9552C164.849 72.5891 164.794 72.2818 165.194 72.0251C166.318 71.3138 166.267 70.611 165.834 69.2263C165.552 68.3173 164.895 68.0858 164.049 68.5319C161.671 69.7945 159.306 71.0571 156.928 72.3197C156.326 72.6396 156.166 73.0857 156.444 73.6665C156.915 74.6639 157.479 75.5351 158.814 75.3499C159.044 75.3132 159.279 75.3653 159.472 75.4959C159.665 75.6264 159.801 75.8255 159.853 76.0528C159.967 76.541 159.432 76.5536 159.138 76.7178C158.431 77.1386 157.707 77.509 156.983 77.8836C156.347 78.2329 156.065 78.0603 156.044 77.3196Z" fill="white"/>
<path d="M118.423 159.713C118.389 160.912 118.389 160.912 117.194 160.929C115.772 160.954 114.719 161.586 114.357 162.638C113.97 163.77 114.387 165.5 115.279 166.249C116.403 167.191 117.628 166.918 118.777 166.354C119.37 166.064 119.568 166.122 119.808 166.741C120.607 168.795 120.649 168.787 118.495 169.435C114.854 170.537 111.904 168.917 111.125 165.382C110.326 161.745 112.388 158.783 116.079 158.248C116.348 158.21 116.618 158.16 116.891 158.143C118.398 158.033 118.478 158.109 118.423 159.713Z" fill="white"/>
<path d="M162.357 113.455C163.86 115.118 165.278 116.637 166.637 118.211C167.107 118.758 167.726 119.157 168.418 119.36C169.31 119.642 170.177 120.004 171.065 120.294C171.515 120.442 171.587 120.644 171.448 121.094C170.69 123.539 170.652 123.653 168.333 122.647C166.604 121.902 164.929 122.1 163.195 122.319C162.025 122.462 160.846 122.559 159.685 122.74C159.015 122.836 158.948 122.643 159.192 122.079C159.563 121.237 159.659 120.092 160.282 119.554C160.905 119.015 162.025 119.478 162.925 119.432C163.287 119.432 163.649 119.432 164.289 119.432C163.325 118.644 162.563 117.958 161.734 117.357C161.625 117.3 161.529 117.222 161.451 117.126C161.373 117.031 161.316 116.921 161.282 116.803C161.249 116.684 161.24 116.56 161.256 116.439C161.272 116.317 161.313 116.199 161.376 116.094C161.743 115.265 162.008 114.427 162.357 113.455Z" fill="white"/>
<path d="M39.3169 127.676C40.2554 127.512 41.2024 127.369 42.1367 127.184C42.7596 127.058 43.2141 127.104 43.4877 127.811C43.7453 128.425 44.064 129.011 44.4388 129.562C44.7839 130.105 44.6156 130.206 44.0516 130.206C42.1746 130.206 40.2933 130.324 38.4204 130.26C37.4651 130.227 36.737 130.631 35.971 131.043C35.3447 131.345 34.7375 131.685 34.1528 132.062C33.4626 132.554 33.1722 132.314 32.8229 131.641C31.8086 129.717 31.7076 129.57 33.6899 128.724C36.0762 127.706 37.0189 125.492 38.4541 123.674C38.9844 123 39.2958 122.159 40.0197 121.624C40.4406 122.352 40.8067 123.114 41.2823 123.8C41.7032 124.423 41.619 124.856 41.1014 125.37C40.428 126.035 39.8388 126.78 39.2075 127.495L39.3169 127.676Z" fill="white"/>
<path d="M113.032 31.201C112.068 31.1673 111.554 31.8197 111.108 32.5141C110.852 32.935 110.591 33.2254 110.107 33.0233C109.623 32.8213 109.938 32.392 109.98 32.0806C110.073 31.4241 110.258 30.7801 110.347 30.1236C110.422 29.5554 110.679 29.4418 111.209 29.5554C113.011 29.9426 114.825 30.2751 116.63 30.6581C117.598 30.8601 117.745 31.1421 117.413 32.0554C117.127 32.8508 116.824 33.642 116.47 34.408C116.213 34.9593 116.361 35.1908 116.933 35.2497C117.201 35.2913 117.467 35.3475 117.729 35.4181C118.271 35.5443 118.528 35.881 118.339 36.4155C117.531 38.7261 116.697 41.0451 115.881 43.3346C115.865 43.4007 115.836 43.4626 115.794 43.5161C115.752 43.5695 115.699 43.6132 115.638 43.644C115.578 43.6749 115.511 43.6922 115.443 43.6947C115.376 43.6972 115.308 43.6849 115.245 43.6586L114.45 43.4777C112.708 43.1199 112.708 43.1199 113.364 41.4238C113.945 39.934 114.5 38.4315 115.107 36.95C115.346 36.365 115.208 36.1083 114.606 36.0241C114.425 36.0031 114.248 35.961 114.071 35.9231C113.099 35.7211 112.91 35.3844 113.255 34.4669C113.486 33.844 113.73 33.2254 113.979 32.6067C114.446 31.4535 114.294 31.2262 113.032 31.201Z" fill="white"/>
<path d="M55.6255 142.975C55.6045 143.332 55.3267 143.455 55.1415 143.64C53.7526 145.037 53.7316 145.054 52.3764 143.661C51.9555 143.24 51.6862 143.269 51.2948 143.661C49.7418 145.21 48.1551 146.674 46.6189 148.215C46.1013 148.736 45.7772 148.867 45.188 148.244C43.6434 146.582 43.6182 146.619 45.2974 145.041C46.56 143.842 47.8226 142.609 49.0852 141.413C49.4724 141.051 49.6281 140.824 49.1568 140.34C47.8479 139.002 47.8942 139.01 49.2325 137.642C49.7965 137.057 50.0532 137.133 50.5583 137.684C52.0692 139.334 53.6474 140.921 55.1878 142.529C55.3646 142.684 55.4992 142.836 55.6255 142.975Z" fill="white"/>
<path d="M137.639 154.578C137.753 154.679 137.829 154.835 137.719 154.927C137.61 155.02 137.526 154.851 137.454 154.763L137.639 154.578Z" fill="white"/>
<path d="M123.309 101.069L127.796 104.263L131.348 106.789C131.701 107.037 132.038 107.277 131.996 107.79C131.954 108.304 131.575 108.476 131.154 108.632C129.572 109.297 129.576 109.297 129.576 111.056C129.576 115.475 129.576 119.894 129.576 124.322C129.576 125.244 129.294 125.917 128.313 126.153C122.446 127.592 116.668 129.423 110.637 130.134C102.743 131.006 94.7733 130.921 86.9 129.882C83.6257 129.461 80.3766 128.93 77.157 128.198C75.726 127.874 75.1621 127.18 75.1579 125.723C75.1579 122.605 75.1326 119.486 75.1579 116.368C75.1579 115.669 74.9643 115.492 74.2951 115.526C69.6108 115.69 64.9771 115.391 60.4444 114.078C59.1065 113.698 57.8028 113.207 56.5471 112.609C56.1262 112.434 55.7717 112.13 55.535 111.74C55.2982 111.351 55.1913 110.896 55.2298 110.442C55.2551 106.023 55.2298 101.604 55.2635 97.1803C55.2635 96.2586 54.9899 95.8335 54.1229 95.5726C53.2916 95.2972 52.4861 94.9494 51.7156 94.533C50.7013 94.0154 50.6634 93.3672 51.5893 92.7023C55.0994 90.1771 58.6066 87.6519 62.111 85.1267C69.4706 79.8378 76.8287 74.5433 84.1855 69.2431C85.0272 68.6329 85.0609 68.3046 84.4169 67.4713C84.1464 67.0921 83.9552 66.6621 83.8547 66.2073C83.7541 65.7524 83.7464 65.282 83.8319 64.824C83.9172 64.3282 84.1603 63.8731 84.5251 63.5266C84.8898 63.18 85.3567 62.9605 85.8563 62.9007C87.384 62.7029 88.4572 63.1448 88.916 64.2643C89.1397 64.7139 89.2405 65.2148 89.2079 65.716C89.1754 66.2172 89.0108 66.7008 88.7308 67.1178C88.0869 68.0563 88.1542 68.3804 89.097 69.0495C94.832 73.1263 100.568 77.2059 106.306 81.2883C106.482 81.4486 106.71 81.5375 106.948 81.5375C107.186 81.5375 107.415 81.4486 107.59 81.2883C112.11 78.202 116.643 75.1395 121.188 72.1008C121.735 71.7347 121.954 71.4359 121.441 70.813C121.099 70.4182 120.922 69.9077 120.946 69.3864C120.969 68.8651 121.191 68.3725 121.567 68.01C122.011 67.621 122.567 67.3823 123.155 67.3279C123.743 67.2735 124.333 67.4061 124.841 67.707C125.302 68.0139 125.626 68.4883 125.743 69.0297C125.86 69.5711 125.761 70.1368 125.468 70.6068C124.887 71.4485 125.19 71.781 125.889 72.2271C132.107 76.2562 138.316 80.2923 144.517 84.3354C144.938 84.6048 145.358 84.8489 145.312 85.4381C145.266 86.0273 144.765 86.1746 144.323 86.3598C144.1 86.4566 143.873 86.545 143.65 86.6334C142.059 87.2689 142.059 87.2689 142.059 88.9565C142.059 91.4396 142.059 93.9228 142.059 96.4059C142.059 98.0893 141.638 98.6028 139.954 98.889C134.629 99.8741 129.251 100.556 123.848 100.93C123.666 100.965 123.486 101.011 123.309 101.069ZM120.329 92.7654C120.258 92.3992 120.018 92.3445 119.854 92.2393C109.294 85.1224 98.8779 77.8036 88.5288 70.3879C86.6686 69.0538 86.4708 68.1826 87.5945 66.2297C87.7222 66.0348 87.7934 65.8083 87.8003 65.5754C87.8072 65.3425 87.7495 65.1122 87.6336 64.91C87.5177 64.7078 87.3482 64.5417 87.1436 64.4299C86.9391 64.3182 86.7077 64.2652 86.475 64.2769C85.991 64.2769 85.5196 64.3569 85.326 64.8367C85.207 65.1314 85.1718 65.4534 85.2246 65.7669C85.2773 66.0804 85.4159 66.3731 85.6248 66.6127C86.7822 68.1194 86.5928 69.3273 85.0356 70.451C74.6037 77.9593 64.1732 85.4704 53.7442 92.9842C53.5337 93.1357 53.155 93.2157 53.197 93.5187C53.2391 93.8218 53.6179 93.826 53.8536 93.9396C54.0893 94.0532 54.245 94.1037 54.4428 94.1795C58.4199 95.6444 62.554 96.6415 66.7616 97.1508C72.6207 97.9156 78.5327 98.1971 84.438 97.9925C84.8889 98.0129 85.3337 97.881 85.7006 97.618C90.1197 94.251 94.5388 90.8841 98.9873 87.5172C99.8627 86.8522 99.8796 86.6754 99.2356 85.7495C98.3518 84.4869 98.4528 82.976 99.4797 82.0417C100.507 81.1074 102.333 81.0695 103.331 81.9154C103.869 82.3697 104.212 83.013 104.291 83.7129C104.369 84.4128 104.176 85.1161 103.752 85.678C103.238 86.3893 103.356 86.8817 104.021 87.3615C107.276 89.6622 110.53 91.9685 113.785 94.2805C113.912 94.386 114.062 94.4591 114.224 94.4935C114.385 94.528 114.552 94.5228 114.711 94.4783C116.618 94.0252 118.494 93.4531 120.329 92.7654V92.7654ZM129.744 107.647C129.631 107.226 129.349 107.134 129.134 106.982C120.557 100.885 111.977 94.7911 103.394 88.6998C101.765 87.5424 101.546 86.5408 102.607 84.811C103.078 84.045 102.893 83.1949 102.14 82.9003C101.479 82.6435 100.793 82.6562 100.321 83.2664C99.9006 83.8093 100.031 84.3817 100.422 84.9499C101.529 86.5155 101.365 87.5466 99.8164 88.7377C91.4384 95.0984 83.0575 101.458 74.6739 107.816C74.4634 107.971 74.1057 108.077 74.1309 108.367C74.1562 108.657 74.5518 108.653 74.7791 108.737C80.3808 110.711 86.2098 111.338 92.0893 111.603C96.9912 111.787 101.9 111.689 106.79 111.309C113.562 110.842 120.292 110.092 126.895 108.476C127.846 108.211 128.797 107.917 129.744 107.647ZM143.069 85.316C142.959 84.9204 142.648 84.832 142.4 84.6721L124.921 73.3087C123.444 72.3491 123.267 71.5663 124.185 70.0049C124.246 69.9267 124.291 69.8366 124.316 69.7403C124.341 69.644 124.346 69.5435 124.331 69.4452C124.316 69.3468 124.28 69.2527 124.227 69.1687C124.173 69.0847 124.103 69.0126 124.02 68.957C123.82 68.8131 123.577 68.7426 123.331 68.7571C123.085 68.7717 122.851 68.8705 122.67 69.0369C122.337 69.3063 122.354 69.6261 122.598 69.9923C123.536 71.4274 123.343 72.3912 121.929 73.3592C117.698 76.2183 113.464 79.0746 109.227 81.9281C108.234 82.5972 108.234 82.6014 109.261 83.3001C111.23 84.6427 113.238 85.9431 115.153 87.3404C115.887 87.8711 116.772 88.1528 117.678 88.1443C124.822 88.3274 131.965 87.7632 138.991 86.4608C140.393 86.2549 141.764 85.8701 143.069 85.316V85.316ZM76.6099 118.741C76.6099 121.043 76.6309 123.346 76.6099 125.648C76.5873 125.789 76.5944 125.934 76.6308 126.072C76.6671 126.21 76.7319 126.34 76.821 126.452C76.9101 126.564 77.0215 126.656 77.1482 126.723C77.2748 126.789 77.414 126.829 77.5568 126.839C77.8219 126.885 78.0871 126.957 78.3522 127.016C82.6818 127.892 87.0533 128.547 91.4496 128.977C91.9715 129.036 92.1903 128.977 92.1819 128.35C92.1482 125.544 92.1482 122.728 92.1819 119.903C92.1819 119.305 91.8705 119.137 91.4538 118.931C86.6559 116.561 81.8665 114.171 77.3548 111.271C77.1696 111.149 76.9634 110.879 76.7193 111.06C76.4752 111.241 76.6141 111.511 76.6141 111.746C76.6113 114.078 76.6099 116.41 76.6099 118.741ZM56.7197 104.747C56.7197 106.591 56.7197 108.438 56.7197 110.282C56.6875 110.518 56.7378 110.759 56.8619 110.963C56.9861 111.166 57.1766 111.321 57.4015 111.401C58.5875 111.932 59.8063 112.386 61.0504 112.761C61.707 112.963 61.9342 112.879 61.93 112.117C61.8921 108.548 61.93 104.962 61.93 101.41C61.9605 101.204 61.9173 100.993 61.808 100.815C61.6988 100.637 61.5304 100.504 61.3324 100.438C60.0025 99.8612 58.6893 99.2425 57.3889 98.6028C56.8502 98.3377 56.7197 98.4639 56.7239 99.0237C56.7197 100.939 56.6944 102.841 56.7197 104.747ZM118.894 127.02C113.423 125.702 107.952 124.44 102.615 122.811C102.144 122.668 102.03 122.836 102.03 123.278C102.03 125.092 102.055 126.91 102.03 128.749C102.03 129.309 102.266 129.398 102.741 129.368C105.519 129.196 108.297 129.074 111.058 128.682C113.706 128.352 116.32 127.796 118.873 127.02H118.894ZM70.1496 109.6V111.507C70.1496 112.172 70.1496 112.837 70.1496 113.501C70.1243 113.977 70.2969 114.145 70.7682 114.137C71.9761 114.112 73.1882 114.137 74.4003 114.137C74.7454 114.137 75.0021 114.023 75.0779 113.67C75.2831 112.662 75.2974 111.624 75.12 110.61C75.0106 109.991 74.0552 110.101 73.5207 109.798C73.365 109.705 73.184 109.659 73.0241 109.575C72.8273 109.494 72.655 109.364 72.5242 109.196C72.3934 109.028 72.3088 108.829 72.2786 108.619C72.2484 108.408 72.2737 108.193 72.352 107.996C72.4304 107.798 72.5591 107.624 72.7253 107.492C73.0855 107.167 73.4665 106.866 73.8658 106.591C74.2867 106.292 74.2867 106.111 73.7606 105.972C72.801 105.715 71.8288 105.467 70.8819 105.164C70.3221 104.983 70.1285 105.076 70.1453 105.703C70.1874 106.995 70.1453 108.295 70.1496 109.6Z" fill="white"/>
</g>
<defs>
<clipPath id="clip0">
<rect width="163.01" height="152.863" fill="white" transform="translate(18 24)"/>
</clipPath>
</defs>
</svg>
