<svg width="200" height="200" viewBox="0 0 200 200" fill="none" xmlns="http://www.w3.org/2000/svg">
<rect width="200" height="200" fill="#101820"/>
<g clip-path="url(#clip0)">
<path d="M161.176 159.714C161.112 131.804 161.246 103.894 161.099 75.9843C160.998 56.9808 161.072 37.9802 161.099 18.9767C161.099 18.2051 160.931 18 160.138 18C140.135 18.0245 120.138 18.0316 100.145 18.0214C80.1528 18.0112 60.1277 18.0041 40.0699 18C39.2677 18 39.1177 18.2204 39.1147 18.9767C39.0595 38.5895 39.2432 58.2024 39.0351 77.8152C38.9432 86.3112 39.0687 94.8103 39.0963 103.309C39.1575 122.671 39.2157 142.032 39.2708 161.392C39.2402 161.638 39.2997 161.886 39.4381 162.092C39.5765 162.297 39.7846 162.445 40.024 162.509C51.946 167.503 63.5986 173.093 75.0766 179.002C83.3022 183.233 91.4554 187.598 99.5361 192.097C99.7737 192.258 100.054 192.344 100.341 192.344C100.628 192.344 100.909 192.258 101.146 192.097C103.731 190.637 106.351 189.225 108.957 187.811C117.918 182.943 126.95 178.203 136.107 173.727C144.141 169.793 152.245 166.018 160.512 162.595C161.011 162.39 161.24 162.136 161.191 161.575C161.139 160.948 161.176 160.329 161.176 159.714Z" fill="#101820"/>
<path d="M54.3479 114.246C60.3824 114.227 66.4139 114.23 72.4453 114.224C72.2708 98.3037 72.9443 82.3832 71.8758 66.2881C73.1678 67.5128 74.3466 68.5415 75.3967 69.7172C75.5559 69.8458 75.7212 69.9652 75.8682 70.106C78.1491 72.2828 80.3933 74.4994 82.7109 76.6303C88.2954 81.7647 93.9165 86.8532 99.5071 91.9783C99.9143 92.3519 100.22 92.4866 100.625 92.0487C102.609 90.2118 104.574 88.338 106.583 86.5194C113.624 80.1237 120.608 73.6391 127.402 66.977C127.601 66.7811 127.812 66.6035 128.167 66.282C128.011 68.8783 128.005 71.3092 127.748 73.731C127.726 78.8378 127.693 83.9477 127.686 89.0545C127.686 97.1923 127.686 105.33 127.686 113.468C127.686 113.887 127.607 114.255 128.28 114.252C134.312 114.224 140.34 114.23 146.372 114.227C146.372 113.615 146.372 113.003 146.372 112.39V38.3629C146.372 38.0813 146.39 37.7996 146.399 37.5179V30.7425C146.116 30.8245 145.867 30.9938 145.686 31.2263C143.608 33.149 141.52 35.0747 139.422 37.0036L109.418 64.6318L100.597 72.7512C100.269 73.0574 99.9449 73.4187 99.5867 72.7819C99.3183 72.6621 99.0975 72.4563 98.9591 72.1971V72.1971L98.806 72.044C98.6947 72.0153 98.5922 71.9595 98.5078 71.8815C98.4234 71.8034 98.3596 71.7057 98.3222 71.597L98.1569 71.447L97.9977 71.3031C97.938 71.301 97.8809 71.2781 97.8362 71.2384C97.7915 71.1988 97.762 71.1448 97.7528 71.0857V71.0857C97.6598 71.0643 97.5744 71.0179 97.5059 70.9516C97.4374 70.8852 97.3883 70.8014 97.3639 70.7091V70.6602L97.3486 70.7061C96.6872 70.2628 96.0976 69.7207 95.6004 69.0987H95.5851C95.4455 69.0501 95.3172 68.9737 95.2077 68.8743C95.0983 68.7749 95.0101 68.6544 94.9483 68.5201C94.7404 68.4309 94.5703 68.2716 94.4676 68.07V68.07L94.3023 67.9169L94.137 67.7638L93.9839 67.6138C93.9243 67.6122 93.867 67.5905 93.8214 67.5521C93.7758 67.5137 93.7446 67.461 93.7328 67.4026C92.6814 66.5715 91.6948 65.6616 90.7814 64.6808C90.7033 64.6655 90.631 64.6287 90.5726 64.5747C90.5142 64.5206 90.472 64.4513 90.4508 64.3746L90.3222 64.2552C90.2633 64.2457 90.2084 64.2192 90.1643 64.179C90.1203 64.1387 90.0889 64.0865 90.0742 64.0286L90.0528 64.0072C89.8442 63.9289 89.6748 63.7716 89.5813 63.5694L89.4251 63.4194C89.3118 63.3831 89.2077 63.3227 89.12 63.2424C89.0323 63.1621 88.963 63.0637 88.9169 62.954L88.7914 62.8377C88.7145 62.8256 88.6434 62.7895 88.5884 62.7345C88.5334 62.6795 88.4972 62.6084 88.4852 62.5315C88.404 62.5315 88.3261 62.4992 88.2687 62.4418C88.2113 62.3844 88.179 62.3065 88.179 62.2253C88.0535 62.2253 87.9463 62.1764 87.931 62.0233C87.8538 62.0037 87.7824 61.9656 87.7232 61.9123C87.664 61.8589 87.6187 61.7919 87.5912 61.7171C87.0915 61.4126 86.6592 61.0095 86.3206 60.5323V60.5323C86.1983 60.4888 86.0858 60.4214 85.9896 60.3342C85.8935 60.247 85.8155 60.1415 85.7603 60.024L85.595 59.8832C84.6416 59.1455 83.7545 58.3259 82.9436 57.4339C82.7133 57.3349 82.5211 57.1642 82.3956 56.9471C82.3844 56.946 82.3736 56.9426 82.3638 56.9371C82.3539 56.9317 82.3453 56.9243 82.3384 56.9154C82.3316 56.9065 82.3266 56.8964 82.3238 56.8855C82.321 56.8746 82.3204 56.8633 82.3221 56.8522L82.1384 56.6807L81.9762 56.5246L81.8139 56.3899C81.6914 56.3501 81.5781 56.3072 81.5659 56.1541L81.4128 56.0133C81.3378 55.9969 81.2691 55.9593 81.2149 55.9051C81.1606 55.8508 81.123 55.7821 81.1067 55.7071L80.9352 55.5663L80.9107 55.5938L80.9321 55.5632L80.6474 55.2969H80.5892V55.2387L80.3474 55.0152C79.8048 54.6677 79.3297 54.2248 78.9451 53.7079C78.7249 53.63 78.5444 53.4682 78.443 53.2578L78.3144 53.1353C78.2544 53.127 78.1982 53.101 78.153 53.0606C78.1077 53.0203 78.0755 52.9675 78.0603 52.9088V52.8904C77.9881 52.8745 77.9215 52.8393 77.8676 52.7887C77.8137 52.738 77.7745 52.6737 77.7542 52.6026C77.3131 52.3455 76.9304 51.9994 76.6305 51.5862C76.3954 51.4787 76.201 51.2983 76.0764 51.0718H76.0611C75.6258 50.8036 75.2489 50.4506 74.9528 50.0339L74.7782 49.8869C74.7008 49.8685 74.6294 49.8307 74.5705 49.7772C74.5116 49.7237 74.4672 49.6561 74.4415 49.5808C74.4304 49.5836 74.4189 49.5839 74.4077 49.5815C74.3965 49.5791 74.3861 49.5742 74.3772 49.567C74.3682 49.5599 74.3611 49.5508 74.3563 49.5404C74.3516 49.53 74.3493 49.5187 74.3496 49.5073C74.2813 49.4942 74.2182 49.4614 74.1682 49.413C74.1182 49.3646 74.0834 49.3027 74.0679 49.2348H74.0526C73.9782 49.2254 73.9086 49.1928 73.8537 49.1418C73.7988 49.0907 73.7613 49.0236 73.7465 48.9501L73.5873 48.8154C73.2933 48.6731 73.0498 48.4445 72.8892 48.1602H72.8372V48.1081C72.748 48.0904 72.6654 48.0484 72.5984 47.9868C72.5315 47.9253 72.4827 47.8465 72.4575 47.7591C72.4456 47.7613 72.4334 47.761 72.4216 47.7583C72.4098 47.7556 72.3987 47.7505 72.389 47.7433C72.3792 47.7361 72.371 47.727 72.3649 47.7166C72.3588 47.7062 72.3549 47.6946 72.3534 47.6826C72.1789 47.6826 72.1177 47.554 72.0473 47.4162C71.7183 47.2502 71.4441 46.993 71.2574 46.6753C70.9324 46.4991 70.6566 46.2444 70.4552 45.9344C69.9131 45.5901 69.438 45.1502 69.053 44.6362C68.3089 44.1131 67.6358 43.4956 67.0507 42.7993C66.7516 42.6593 66.5011 42.4333 66.3312 42.1502L66.3098 42.1288C66.2353 42.1209 66.1653 42.0892 66.1101 42.0385C66.055 41.9878 66.0176 41.9207 66.0036 41.8471V41.8471C65.5465 41.5725 65.148 41.2104 64.831 40.7816L64.6167 40.5734C63.8015 39.9805 63.0594 39.2929 62.4062 38.5252V38.5252L62.247 38.3752C61.4257 37.7681 60.6687 37.0787 59.9875 36.3178C57.9484 34.4808 55.9094 32.6224 53.7448 30.666V32.2519C53.7448 58.6779 53.7448 85.1019 53.7448 111.524C53.7448 112.243 53.7754 112.966 53.7448 113.682C53.6958 114.135 53.8856 114.249 54.3479 114.246Z" fill="white"/>
<path d="M70.4404 45.8364L70.4094 45.8797L70.4125 45.8828L70.4404 45.8364Z" fill="white"/>
<path d="M69.053 44.6178V44.6213L69.0565 44.6248L69.053 44.6178Z" fill="white"/>
<path d="M76.6063 51.5494L76.5754 51.5772L76.6063 51.5494Z" fill="white"/>
<path d="M63.0797 126.036C61.656 127.607 60.2538 129.104 58.9006 130.644C58.5148 131.088 58.2882 131.023 57.9576 130.644C56.7697 129.303 55.5705 127.971 54.3601 126.648C54.1894 126.395 53.9491 126.196 53.6682 126.076V136.127C55.6338 136.341 55.6338 136.341 55.6307 134.413C55.6307 133.16 55.6307 131.908 55.6093 130.659C55.6093 130.644 55.646 130.631 55.7195 130.579C56.1312 130.932 56.4873 131.345 56.7758 131.804C57.4646 132.273 57.7769 133.142 58.5791 133.491L61.3346 130.344L61.2182 132.135L61.2549 135.558C61.2549 135.824 61.1753 136.136 61.5611 136.24C61.584 136.229 61.609 136.221 61.6346 136.219C63.2297 136.112 63.2266 136.112 63.2297 134.44C63.2297 132.081 63.2379 129.721 63.2542 127.362C63.1409 126.945 63.3154 126.507 63.0797 126.036Z" fill="white"/>
<path d="M146.286 126.318C145.761 126.201 145.216 126.207 144.694 126.336C144.33 126.465 144.55 127.028 144.547 127.392C144.526 128.938 144.547 130.481 144.547 132.04C144.241 132.003 144.152 131.786 144.017 131.651C142.281 129.912 140.558 128.164 138.812 126.425C138.681 126.296 138.577 126.039 138.344 126.134C138.268 126.165 138.274 126.406 138.246 126.55C138.335 129.673 138.347 132.796 138.246 135.916C138.292 136.084 138.43 136.158 138.568 136.222C138.616 136.204 138.666 136.191 138.718 136.182C140.248 136.109 140.248 136.109 140.248 134.532V130.399C140.624 130.569 140.942 130.843 141.167 131.189C141.935 131.933 142.698 132.686 143.475 133.418C144.492 134.373 145.371 135.469 146.506 136.299C146.521 133.208 146.535 130.119 146.549 127.031C146.387 126.814 146.647 126.382 146.286 126.318Z" fill="white"/>
<path d="M90.3834 136.302C92.5265 136.24 94.0574 134.921 94.4768 132.775C94.6954 131.486 94.638 130.166 94.3084 128.902C93.0838 126.52 90.9069 125.626 88.4331 126.452C86.9237 126.951 86.2287 128.148 85.6991 129.514C85.7909 130.09 85.6287 130.65 85.5889 131.219C85.662 131.415 85.6748 131.628 85.6256 131.832C85.6416 131.85 85.6503 131.874 85.6503 131.899C85.6503 131.924 85.6416 131.948 85.6256 131.966C85.8093 133.877 86.5931 135.38 88.4729 136.133C89.1048 136.236 89.7433 136.292 90.3834 136.302ZM88.4086 128.234C89.1128 127.248 90.7477 127.01 91.507 127.968L91.7152 128.188C91.7887 128.167 91.8162 128.188 91.7917 128.265C92.8174 129.679 92.8664 132.769 91.8836 134.174C90.9008 135.579 89.1495 135.45 88.3045 133.993C87.3738 132.597 87.4534 129.569 88.4086 128.234V128.234Z" fill="white"/>
<path d="M107.602 126.195C105.64 126.168 104.124 126.899 103.352 128.822C103.284 128.956 103.2 129.082 103.105 129.199C103.08 130.221 102.875 131.238 102.979 132.26C103.27 133.993 104.023 135.395 105.734 136.093C106.603 136.308 107.505 136.356 108.392 136.234C110.48 135.845 111.76 134.339 111.885 132.175C111.973 131.13 111.905 130.079 111.683 129.055C110.979 127.184 109.601 126.223 107.602 126.195ZM108.971 134.486C108.276 135.218 107.265 135.325 106.331 134.762L106.151 134.609L106.016 134.474C105.674 134.242 105.433 133.888 105.343 133.485C104.823 132.022 104.833 130.423 105.37 128.966C105.949 127.405 107.446 126.893 108.652 127.809C108.761 127.874 108.863 127.949 108.958 128.032C110.266 129.407 110.275 133.118 108.971 134.486V134.486Z" fill="white"/>
<path d="M83.2436 136.121C83.9802 136.213 84.7247 136.222 85.4633 136.149L83.8345 133.846L83.6906 133.672C83.6704 133.673 83.65 133.67 83.6313 133.662C83.6125 133.655 83.596 133.642 83.583 133.627C83.5701 133.611 83.5611 133.592 83.5569 133.573C83.5527 133.553 83.5534 133.532 83.559 133.512C83.5501 133.509 83.5421 133.503 83.5354 133.496C83.5287 133.489 83.5235 133.48 83.5201 133.471C83.5167 133.462 83.5151 133.452 83.5155 133.443C83.5158 133.433 83.5181 133.423 83.5222 133.414C83.2773 133.295 83.1916 133.032 83.014 132.857C82.6833 132.551 82.8058 132.37 83.164 132.202C84.4989 131.571 85.0745 130.506 84.9398 129.046C84.5754 127.913 83.7794 127.209 82.6956 126.798C81.2872 126.25 79.8023 126.21 78.3236 126.119L77.996 126.229L77.9592 127.19C77.9592 127.597 77.9592 128.008 77.9592 128.415L78.0052 136.139C79.937 136.292 79.937 136.292 79.937 134.376C79.9202 134.249 79.9202 134.12 79.937 133.993C80.035 133.647 79.6156 133.142 80.2432 132.958C80.8708 132.775 81.2811 132.995 81.4679 133.62C82.0615 134.341 82.6018 135.104 83.0844 135.904H83.1365L83.1181 135.95L83.2436 136.121ZM81.0331 131.587C80.8402 131.636 80.6473 131.682 80.4545 131.74C80.0595 131.856 79.9095 131.74 79.9248 131.305C79.9554 130.237 79.9646 129.162 79.9248 128.103C79.9248 127.594 80.0564 127.398 80.5739 127.509C81.0026 127.546 81.4152 127.69 81.774 127.928C82.6456 128.4 83.0242 129.048 82.9099 129.872C82.7813 130.754 82.1292 131.357 81.0331 131.587Z" fill="white"/>
<path d="M137.566 135.542L133.063 125.984C132.802 126.532 132.613 126.918 132.429 127.307C131.078 130.146 129.729 132.984 128.381 135.821C128.366 136.026 128.424 136.167 128.666 136.17C128.973 136.157 129.279 136.165 129.585 136.194C130.154 136.271 130.528 136.093 130.65 135.506C130.815 134.713 131.299 134.477 132.086 134.553C132.878 134.607 133.673 134.607 134.465 134.553C134.955 134.535 135.255 134.67 135.273 135.203C135.449 135.425 135.567 135.688 135.616 135.968L135.708 136.13L135.928 136.194L137.784 136.124L137.753 135.818L137.566 135.542ZM134.199 133.454H134.045C133.277 133.454 132.172 133.736 131.829 133.347C131.412 132.876 132.233 132.037 132.441 131.336C132.585 130.879 132.805 130.451 133.026 129.927C133.507 131.036 133.944 132.07 134.388 133.081C134.502 133.295 134.456 133.424 134.217 133.454H134.199Z" fill="white"/>
<path d="M98.0439 133.191C98.9919 133.113 99.9175 132.862 100.775 132.45C102.241 131.734 102.673 130.791 102.492 128.736C101.908 127.591 100.931 126.954 99.737 126.593C99.0229 126.399 98.2937 126.264 97.5571 126.192C95.6864 126.165 95.6895 126.165 95.6619 128.075C95.6536 128.28 95.6342 128.484 95.6038 128.687C95.6833 129.126 95.6833 129.575 95.6038 130.013C95.6986 130.388 95.6986 130.78 95.6038 131.155C95.6803 132.005 95.6803 132.861 95.6038 133.711C95.7002 134.294 95.7002 134.889 95.6038 135.472C95.668 135.645 95.668 135.835 95.6038 136.008L95.6681 136.142L95.7109 136.17C97.5632 136.204 97.5632 136.204 97.5663 134.308C97.5663 134.103 97.5816 133.898 97.5663 133.696C97.5295 133.329 97.6918 133.222 98.0439 133.191ZM97.5601 127.836C97.5601 127.53 97.6826 127.435 97.9735 127.472C98.5337 127.545 99.091 127.616 99.5349 128.014L99.7247 128.145C99.8196 128.145 99.8656 128.176 99.8656 128.271C99.9418 128.294 100.011 128.337 100.064 128.396C100.118 128.455 100.155 128.527 100.172 128.605C100.282 128.669 100.404 128.727 100.365 128.892C100.894 130.393 100.187 131.547 98.5521 131.853L98.3378 131.908L98.0102 131.942C97.6612 132.092 97.554 131.942 97.554 131.602C97.5693 130.362 97.5724 129.091 97.5601 127.836V127.836Z" fill="white"/>
<path d="M68.5664 135.065C67.8102 135.065 67.0539 135.043 66.2977 135.031C65.8477 134.948 66.0497 134.593 66.0467 134.364C66.0099 132.294 66.016 132.291 68.0826 132.294C68.6276 132.294 69.2644 132.447 69.1787 131.541C69.145 131.198 68.9032 131.189 68.6368 131.189C68.0612 131.189 67.4887 131.189 66.9131 131.167C66.2242 131.333 65.9517 131.103 66.0191 130.362C66.0773 129.598 66.0773 128.83 66.0191 128.066C65.9854 127.499 66.2089 127.365 66.7263 127.389C67.4917 127.423 68.2572 127.389 69.0226 127.389C69.2644 127.389 69.5492 127.496 69.7053 127.19C69.7941 126.425 69.4512 126.226 68.7042 126.272C67.4795 126.342 66.215 126.272 64.969 126.296C64.6842 126.296 64.3566 126.149 64.1086 126.425C64.1086 126.529 64.1086 126.633 64.1086 126.731V128.874C64.1086 131.054 64.1086 133.237 64.1423 135.417C64.1423 135.677 64.0107 135.992 64.3199 136.191L69.6992 136.115C69.641 135.068 69.641 135.071 68.5664 135.065Z" fill="white"/>
<path d="M99.4246 146.154C103.099 146.154 106.767 146.154 110.431 146.154C111.187 146.154 111.35 145.937 111.117 145.318C110.958 144.896 110.596 145.064 110.324 145.061C104.244 145.061 98.1632 145.061 92.0828 145.061C90.7479 145.061 89.413 145.061 88.0812 145.061C87.7475 145.061 87.5362 145.138 87.5424 145.526C87.5485 145.915 87.622 146.139 88.0322 146.16C88.2374 146.16 88.4425 146.16 88.6446 146.16L99.4246 146.154Z" fill="white"/>
<path d="M125.424 128.118L125.452 136.115C127.423 136.372 127.423 136.372 127.423 134.422C127.423 132.297 127.439 130.172 127.423 128.047C127.423 127.539 127.564 127.356 128.069 127.392C128.574 127.429 129.043 127.392 129.527 127.392C129.802 127.392 129.98 127.356 129.949 127.031C130.099 126.419 129.866 126.25 129.236 126.263C127.16 126.302 125.084 126.263 123.008 126.263C122.904 126.664 122.815 127.065 123.112 127.435H123.63C124.037 127.42 124.447 127.435 124.854 127.38C125.448 127.322 125.534 127.628 125.424 128.118Z" fill="white"/>
<path d="M77.2705 127.193C77.3685 126.422 77.0164 126.244 76.2786 126.275C74.5763 126.333 72.8679 126.333 71.1626 126.275C70.4308 126.25 69.9838 126.345 70.091 127.193C70.3972 127.588 70.835 127.331 71.2054 127.398C71.6616 127.484 72.1453 127.273 72.5923 127.518L72.6107 127.542C72.8067 128.155 72.7026 128.767 72.7026 129.358C72.7026 131.55 72.675 133.745 72.6566 135.94C72.6934 136.017 72.7332 136.096 72.7699 136.176C74.6436 136.176 74.6436 136.176 74.6436 134.339C74.6436 132.266 74.6651 130.194 74.6436 128.124C74.6436 127.533 74.8243 127.405 75.3815 127.389C75.9846 127.362 76.6582 127.637 77.2705 127.193Z" fill="white"/>
<path d="M118.076 135.059C116.99 135.128 115.899 135.112 114.815 135.01C114.635 134.982 114.675 134.863 114.705 134.746C114.705 132.468 114.696 130.191 114.678 127.913C114.678 126.311 114.678 126.312 113.125 126.281H112.819C112.633 127.506 112.758 128.73 112.737 129.955C112.703 131.948 112.697 133.935 112.678 135.934L112.798 136.185C114.583 136.185 116.368 136.185 118.153 136.185C118.459 136.185 118.845 136.299 118.952 135.824C118.976 135.199 118.685 135.043 118.076 135.059Z" fill="white"/>
<path d="M69.9899 158.321C69.926 158.3 69.8707 158.259 69.8325 158.204C69.7943 158.148 69.7754 158.082 69.7787 158.015C69.7671 158.012 69.7562 158.007 69.7467 158C69.7372 157.993 69.7292 157.984 69.7232 157.973C69.7172 157.963 69.7133 157.952 69.7118 157.94C69.7103 157.928 69.7112 157.916 69.7144 157.905C69.4327 157.693 69.2551 157.479 69.6715 157.222C70.7308 156.567 70.9145 155.587 70.6849 154.466C70.6543 154.381 70.6206 154.298 70.59 154.212L70.4553 154.016C70.4369 154.016 70.4187 154.012 70.4021 154.004C70.3855 153.996 70.3709 153.984 70.3594 153.97C70.3479 153.956 70.3398 153.939 70.3358 153.921C70.3317 153.903 70.3317 153.884 70.3359 153.866L70.143 153.661C70.0573 153.683 70.0267 153.64 70.0205 153.563C69.0684 152.92 67.9999 152.736 66.8762 152.691C66.3956 152.669 66.2639 152.825 66.2639 153.303C66.2884 155.229 66.2639 157.151 66.2639 159.077C66.2639 160.302 66.2639 160.302 67.4886 160.28C67.4886 159.696 67.4886 159.108 67.5222 158.526C67.5376 158.284 67.3508 157.935 67.7825 157.837C68.2142 157.739 68.3948 157.932 68.4897 158.324C68.8137 158.747 69.1014 159.197 69.35 159.668C69.6256 160.305 70.1063 160.317 70.6635 160.302C71.0982 160.302 71.0646 160.115 70.887 159.833C70.5931 159.316 70.293 158.817 69.9899 158.321ZM67.8743 156.9C67.5161 156.9 67.4947 156.738 67.5682 156.469V154.148C67.51 153.863 67.5008 153.649 67.9141 153.67C68.1258 153.676 68.3341 153.724 68.5272 153.811C68.7202 153.898 68.8941 154.022 69.0387 154.177C69.1834 154.332 69.2959 154.513 69.3698 154.712C69.4438 154.91 69.4776 155.121 69.4694 155.333C69.4503 155.747 69.2753 156.139 68.9795 156.43C68.6837 156.72 68.2889 156.888 67.8743 156.9Z" fill="white"/>
<path d="M122.022 134.869C122.022 132.256 122.033 129.647 122.053 127.04C122.102 126.428 121.829 126.161 121.205 126.281C121.053 126.307 120.898 126.307 120.746 126.281C120.21 126.192 120.051 126.403 120.057 126.948C120.081 129.817 120.057 132.689 120.072 135.561C120.072 135.781 119.993 136.029 120.219 136.204C120.428 136.142 120.652 136.161 120.847 136.259V136.259C122.022 136.124 122.019 136.124 122.022 134.869Z" fill="white"/>
<path d="M107.192 158.906L104.626 152.531C103.61 155.045 102.667 157.372 101.736 159.702C101.669 159.864 101.476 160.069 101.736 160.244C102.079 160.476 102.961 160.192 103.05 159.778C103.184 159.166 103.524 158.946 104.13 159.028C104.462 159.07 104.797 159.07 105.128 159.028C105.698 158.964 106.047 159.138 106.194 159.729C106.313 160.192 107.082 160.51 107.483 160.259C107.93 159.977 107.425 159.696 107.388 159.408C107.344 159.233 107.278 159.064 107.192 158.906V158.906ZM105.184 158.183C103.653 158.339 103.601 158.29 104.13 156.861C104.28 156.456 104.415 156.046 104.605 155.501C104.911 156.343 105.18 157.056 105.456 157.761C105.563 158.042 105.526 158.149 105.184 158.183Z" fill="white"/>
<path d="M123.449 154.31C123.37 154.31 123.336 154.258 123.367 154.178C122.448 152.954 121.138 152.77 119.757 152.684C119.249 152.654 119.114 152.81 119.12 153.318C119.151 155.232 119.12 157.148 119.12 159.065C119.12 160.241 119.12 160.241 120.311 160.314C120.311 159.754 120.372 159.196 120.351 158.639C120.336 158.214 120.424 158.027 120.905 157.96C122.13 157.791 123.116 157.24 123.596 156.015C123.596 155.556 123.596 155.097 123.596 154.641C123.536 154.612 123.489 154.563 123.462 154.503C123.435 154.442 123.43 154.374 123.449 154.31V154.31ZM120.825 157.035L120.663 157.053L120.59 157.072L120.516 157.053C120.271 155.952 120.271 154.811 120.516 153.71C120.595 153.685 120.678 153.676 120.759 153.686C120.841 153.695 120.92 153.722 120.991 153.765L121.184 153.823C121.995 154.044 122.326 154.613 122.323 155.412C122.319 156.211 121.915 156.674 120.825 157.035Z" fill="white"/>
<path d="M81.3548 159.512C81.3502 159.473 81.3317 159.437 81.3028 159.411C81.2763 159.376 81.2537 159.338 81.2354 159.298C81.2354 159.279 81.2354 159.255 81.2507 159.233C81.1783 159.19 81.1224 159.124 81.0919 159.045C81.0614 158.966 81.0581 158.879 81.0823 158.799L78.5657 152.513C77.5431 155.106 76.6093 157.473 75.6785 159.843C75.6387 160.02 75.6357 160.182 75.8408 160.262L76.147 160.247C76.8695 160.299 76.8205 159.561 77.1787 159.239L77.2002 159.193L77.2951 159.065C77.3087 159.069 77.3231 159.068 77.3363 159.063C77.3494 159.058 77.3607 159.049 77.3686 159.037C78.1836 158.838 79.0364 158.856 79.8424 159.089C79.8791 159.151 79.9189 159.212 79.9587 159.273C80.0358 159.316 80.0953 159.384 80.1267 159.467C80.158 159.549 80.1593 159.64 80.1302 159.723L80.2312 159.993C80.2917 160.003 80.3477 160.031 80.3919 160.074C80.4362 160.116 80.4666 160.171 80.4792 160.231L80.767 160.25C81.0058 160.106 81.4222 160.25 81.465 159.797L81.3456 159.512H81.3548ZM79.328 158.162C78.7953 158.162 78.2595 158.162 77.7298 158.11C77.6104 158.11 77.7023 157.886 77.7298 157.776C77.987 157.056 78.2503 156.337 78.5442 155.526C78.8504 156.331 79.1229 157.056 79.3954 157.794C79.4144 157.842 79.4308 157.891 79.4444 157.941C79.4872 158.058 79.4413 158.162 79.328 158.162V158.162Z" fill="white"/>
<path d="M115.912 159.399C115.483 159.451 115.042 159.399 114.607 159.399C114.277 159.399 114.188 159.282 114.163 158.952C114.059 157.378 114.047 157.381 115.651 157.311C115.677 157.307 115.702 157.307 115.728 157.311C116.034 157.341 116.184 157.219 116.181 156.873C116.178 156.527 115.991 156.453 115.697 156.459C115.339 156.459 114.981 156.459 114.623 156.459C114.451 156.459 114.203 156.499 114.197 156.254C114.179 155.437 114.01 154.555 114.261 153.82C114.427 153.34 115.281 153.719 115.817 153.63C115.868 153.626 115.919 153.626 115.97 153.63C116.276 153.649 116.515 153.612 116.515 153.193C116.515 152.773 116.273 152.77 115.967 152.773C114.969 152.773 113.97 152.773 112.972 152.773C112.954 154.252 112.939 155.734 112.917 157.213C112.917 157.519 112.884 157.825 112.865 158.131L112.948 160.253C113.906 160.253 114.861 160.274 115.817 160.268C116.077 160.268 116.392 160.363 116.536 160.017C116.527 159.604 116.426 159.334 115.912 159.399Z" fill="white"/>
<path d="M96.7577 157.641L96.5985 157.409C95.7871 156.634 94.9666 155.878 94.1675 155.082C94.0134 154.961 93.9038 154.793 93.8561 154.603C93.8084 154.414 93.8253 154.214 93.9042 154.035C93.9901 153.874 94.1219 153.742 94.2827 153.657C94.4435 153.571 94.6261 153.535 94.8074 153.554C95.1635 153.56 95.5178 153.606 95.8637 153.692C96.2586 153.781 96.3841 153.477 96.476 153.248C96.6076 152.905 96.2647 152.908 96.0627 152.859C95.2458 152.618 94.3738 152.641 93.5705 152.923C92.5265 153.321 92.2111 154.258 92.7745 155.226C93.0874 155.69 93.4706 156.103 93.9103 156.45C94.4369 156.931 95.0217 157.369 95.4197 157.981C95.8637 158.664 95.6187 159.23 94.8258 159.414C94.3494 159.529 93.8491 159.495 93.3929 159.316C93.3004 159.261 93.1965 159.227 93.0891 159.217C92.9817 159.207 92.8735 159.222 92.7725 159.26C92.6716 159.298 92.5805 159.358 92.5061 159.436C92.4317 159.514 92.3758 159.608 92.3428 159.711C93.2949 160.856 96.2923 160.44 96.8526 159.099C97.021 158.691 96.8985 158.293 96.874 157.892C96.8276 157.871 96.7904 157.835 96.769 157.788C96.7476 157.742 96.7436 157.69 96.7577 157.641V157.641Z" fill="white"/>
<path d="M91.2009 159.402C90.7906 159.42 90.3804 159.402 89.9762 159.402C89.5721 159.402 89.4496 159.316 89.4405 158.887C89.3976 157.378 89.3762 157.378 90.9223 157.301C90.9477 157.298 90.9734 157.298 90.9988 157.301C91.305 157.323 91.4795 157.24 91.4642 156.876C91.4489 156.512 91.2652 156.478 90.9682 156.463C89.4374 156.368 89.4374 156.361 89.4374 154.785C89.4374 154.552 89.4588 154.322 89.4374 154.093C89.4129 153.759 89.5599 153.627 89.8844 153.634C90.3712 153.634 90.8611 153.597 91.3417 153.634C91.8224 153.67 91.6693 153.327 91.7367 153.092C91.8438 152.706 91.5591 152.785 91.3877 152.785C90.4692 152.785 89.5507 152.785 88.6322 152.755C88.2281 152.755 88.1821 152.951 88.1821 153.281C88.1821 155.435 88.1821 157.588 88.1821 159.742C88.1821 160.091 88.2862 160.274 88.6352 160.299C89.4925 160.283 90.3498 160.256 91.204 160.262C91.5959 160.262 91.8592 160.189 91.801 159.723C91.7 159.448 91.4826 159.389 91.2009 159.402Z" fill="white"/>
<path d="M74.8426 153.631C75.1151 153.615 75.3509 153.631 75.3478 153.239C75.3447 152.847 75.2039 152.752 74.8396 152.761C73.9425 152.786 73.0454 152.776 72.1453 152.782L71.7473 153.089V153.395C71.9555 154.638 71.7994 155.89 71.8361 157.136C71.8606 157.929 71.8637 158.725 71.8361 159.518C71.8147 160.011 71.9769 160.182 72.4852 160.185C73.2965 160.185 74.114 160.06 74.9345 160.265L75.2223 160.225L75.3233 159.885V159.579C74.8977 159.457 74.4324 159.653 74.016 159.426C73.7098 159.371 73.2598 159.552 73.1434 159.319C72.8801 158.789 72.9903 158.162 73.0699 157.592C73.1342 157.118 73.6272 157.421 73.8996 157.308C74.264 157.158 74.9682 157.715 74.9865 156.925C75.0049 156.068 74.2487 156.518 73.8813 156.508C73.2353 156.493 72.9169 156.355 73.0118 155.645C73.0975 155.017 72.7638 154.237 73.1618 153.784C73.5016 153.373 74.2609 153.667 74.8426 153.631Z" fill="white"/>
<path d="M132.074 159.448C130.849 159.448 130.261 158.93 130.004 157.666C129.83 157.183 129.756 156.671 129.788 156.159C129.819 155.647 129.955 155.147 130.188 154.69C130.494 154.016 131.048 153.545 131.884 153.621L132.205 153.661C132.606 153.508 132.943 153.312 132.818 152.792L132.511 152.746L132.022 152.675C131.84 152.746 131.639 152.746 131.458 152.675L130.573 152.813L130.365 152.883C129.896 153.121 129.491 153.467 129.182 153.893C128.874 154.319 128.672 154.813 128.593 155.333C128.458 156.064 128.449 156.812 128.565 157.546C128.899 159.619 130.319 160.636 132.395 160.317C132.567 160.29 132.802 160.317 132.87 160.133C132.937 159.95 132.717 159.784 132.603 159.622C132.49 159.46 132.285 159.448 132.074 159.448Z" fill="white"/>
<path d="M85.6869 159.411C85.1266 159.411 84.5663 159.392 84.006 159.38C83.5223 159.509 83.3937 159.307 83.3937 158.832C83.3937 156.815 83.3937 154.8 83.3723 152.782C83.1426 152.782 82.91 152.782 82.6803 152.782C82.2915 152.743 82.1476 152.877 82.1507 153.291C82.166 155.464 82.1507 157.638 82.1507 159.809C82.1507 160.115 82.2364 160.283 82.5793 160.28C83.6264 160.28 84.6735 160.28 85.7206 160.28C86.0451 160.28 86.1767 160.155 86.1737 159.827C86.1706 159.5 85.9869 159.408 85.6869 159.411Z" fill="white"/>
<path d="M128.127 159.411C127.543 159.426 126.955 159.393 126.367 159.377H126.061L125.911 159.359C125.739 159.316 125.803 159.203 125.831 159.099V158.765C125.739 156.977 125.755 155.189 125.831 153.401C125.831 153.294 125.831 153.184 125.831 153.073C125.816 153.054 125.808 153.029 125.808 153.004C125.808 152.979 125.816 152.955 125.831 152.936C124.913 152.586 124.548 152.684 124.545 153.309C124.545 155.452 124.545 157.595 124.545 159.738C124.545 160.069 124.588 160.265 124.989 160.259C126.036 160.259 127.083 160.259 128.13 160.259C128.412 160.259 128.562 160.179 128.553 159.867C128.544 159.555 128.504 159.402 128.127 159.411Z" fill="white"/>
<path d="M101.764 153.229V152.923C101.731 152.883 101.711 152.834 101.705 152.782C100.346 152.782 98.9867 152.782 97.6274 152.758C97.1283 152.758 97.061 152.991 97.1283 153.37C97.1957 153.75 97.5325 153.588 97.7407 153.597C98.7877 153.64 98.7908 153.631 98.7939 154.69C98.7939 156.254 98.8367 157.822 98.7785 159.383C98.7541 160.032 98.9378 160.326 99.5776 160.323C99.6266 160.256 99.6725 160.244 99.7123 160.323H99.893C100.11 160.084 100.037 159.794 100.037 159.518C100.037 157.761 100.061 156 100.037 154.243C100.037 153.735 100.184 153.591 100.68 153.578C101.038 153.572 101.574 153.885 101.764 153.229Z" fill="white"/>
<path d="M108.245 152.758C107.737 152.758 107.489 152.88 107.495 153.398L107.541 153.548L107.914 153.643C108.328 153.664 108.784 153.389 109.139 153.829C109.162 153.858 109.183 153.889 109.2 153.921C109.2 153.921 109.176 153.952 109.164 153.967C109.239 154.183 109.247 154.417 109.185 154.638V155.25C109.257 155.532 109.257 155.828 109.185 156.11C109.246 156.797 109.246 157.487 109.185 158.174C109.185 158.833 109.193 159.491 109.21 160.149L109.252 160.17V160.216L109.427 160.342C109.463 160.297 109.513 160.267 109.569 160.257C109.625 160.246 109.683 160.255 109.733 160.283C110.312 160.314 110.508 160.06 110.492 159.469C110.456 157.785 110.492 156.101 110.462 154.417C110.44 153.744 110.63 153.471 111.31 153.582C111.989 153.692 112.305 153.474 112.051 152.752C110.78 152.77 109.513 152.801 108.245 152.758Z" fill="white"/>
</g>
<defs>
<clipPath id="clip0">
<rect width="122.199" height="174.348" fill="white" transform="translate(39 18)"/>
</clipPath>
</defs>
</svg>
